# xmcd
#
# Track frame offsets:
#	150
#	11607
#	28185
#	35837
#	44427
#	55705
#	70020
#	81470
#	96295
#	109037
#	126652
#	140452
#	154212
#	166175
#	176300
#	189630
#
# Disc length: 2636
#
# Revision: 2
# Processed by: cddbd v1.5.1PL0 Copyright (c) Steve Scherf et al.
# Submitted via: CDex 1.40Beta0
# Normalized: r1:DSETVAR1,TDELIM( - )
#
DISCID=de0a4a10
DTITLE=Various Artist - FRONTIER 50'S
DYEAR=1900
DGENRE=Country
TTITLE0=JOHNNY HORTON - THE BATTLE OF NEW ORLEANS
TTITLE1=MARTY ROBBINS - BALLAD OF THE ALAMO
TTITLE2=FESS PARKER - THE BALLAD OF DAVY CROCKETT
TTITLE3=JOHNNY CASH - THE REBEL JOHNNY YUMA
TTITLE4=STONEWALL JACKSON - WATERLOO
TTITLE5=JIMMY DEAN - P. T. 109
TTITLE6=FRANKIE LAINE - MULE TRAIN
TTITLE7=JOHNNY HORTON - SINK THE BISMARCK
TTITLE8=JOHNNY HORTON - NORTH TO ALASKA
TTITLE9=MARTY ROBBINS - BIG IRON
TTITLE10=JOHNNY CASH - DON'T TAKE YOUR GUNS TO TOWN
TTITLE11=JIMMY DEAN - BIG BAD JOHN
TTITLE12=JIMMY DEAN - THE CAJUN QUEEN
TTITLE13=MARTY ROBBINS - FIVE BROTHERS
TTITLE14=FRANKIE LAINE - MOONLIGHT GAMBLER
TTITLE15=JOHNNY CASH - FIVE FEET HIGH AND RISING
EXTD=ID3G:   2
EXTT0=
EXTT1=
EXTT2=
EXTT3=
EXTT4=
EXTT5=
EXTT6=
EXTT7=
EXTT8=
EXTT9=
EXTT10=
EXTT11=
EXTT12=
EXTT13=
EXTT14=
EXTT15=
PLAYORDER=
